<?xml version="1.0" standalone="no"?>
<!DOCTYPE svg PUBLIC "-//W3C//DTD SVG 20010904//EN"
 "http://www.w3.org/TR/2001/REC-SVG-20010904/DTD/svg10.dtd">
<svg version="1.0" xmlns="http://www.w3.org/2000/svg"
 width="100.000000pt" height="100.000000pt" viewBox="0 0 100.000000 100.000000"
 preserveAspectRatio="xMidYMid meet">
<metadata>
Created by potrace 1.14, written by Peter Selinger 2001-2017
</metadata>
<g transform="translate(0.000000,100.000000) scale(0.100000,-0.100000)"
fill="#000000" stroke="none">
<path d="M444 876 c-85 -39 -204 -195 -204 -267 0 -14 11 -36 26 -50 24 -23
33 -24 161 -26 123 -2 141 -5 187 -28 28 -14 59 -37 70 -51 25 -35 26 -102 1
-120 -40 -30 -93 -11 -200 70 -89 68 -150 96 -209 96 -89 0 -128 -39 -170
-168 -61 -184 45 -269 249 -202 59 19 137 19 200 -1 130 -42 237 -27 298 40
121 134 63 405 -128 597 -118 119 -196 149 -281 110z"/>
</g>
</svg>
