<svg width="60" height="60" viewBox="0 0 60 60" fill="none" xmlns="http://www.w3.org/2000/svg">
<g id="la:git-alt">
<path id="Vector" d="M30 3.74999C29.055 3.74999 28.1325 4.09499 27.4219 4.80562L22.1475 10.1362C21.8625 10.29 21.6225 10.5112 21.4463 10.7812L4.80378 27.4219C4.12115 28.1062 3.73779 29.0334 3.73779 30C3.73779 30.9666 4.12115 31.8938 4.80378 32.5781L27.4219 55.1962C28.1082 55.8752 29.0346 56.2561 30 56.2561C30.9654 56.2561 31.8919 55.8752 32.5782 55.1962L55.1963 32.5781C55.8789 31.8938 56.2623 30.9666 56.2623 30C56.2623 29.0334 55.8789 28.1062 55.1963 27.4219L32.5763 4.80374C32.2381 4.46615 31.8362 4.19915 31.3939 4.01825C30.9517 3.83735 30.4779 3.74617 30 3.74999ZM30 7.55812L52.4419 30L30 52.4419L7.55816 30L23.0869 14.4731L26.3682 17.7544C26.2839 18.0794 26.2442 18.4143 26.25 18.75C26.25 20.1337 27.0038 21.3206 28.125 21.9731V38.0269C27.0038 38.6794 26.25 39.8644 26.25 41.25C26.25 42.2446 26.6451 43.1984 27.3484 43.9016C28.0516 44.6049 29.0055 45 30 45C30.9946 45 31.9484 44.6049 32.6517 43.9016C33.3549 43.1984 33.75 42.2446 33.75 41.25C33.75 39.8662 32.9963 38.6794 31.875 38.0269V23.3212L37.6182 29.0625C37.4747 29.6167 37.4601 30.1965 37.5754 30.7573C37.6908 31.318 37.9331 31.8449 38.2838 32.2975C38.6344 32.7501 39.0841 33.1163 39.5983 33.3681C40.1125 33.6199 40.6775 33.7505 41.25 33.75C42.2443 33.7495 43.1976 33.3542 43.9005 32.651C44.6033 31.9478 44.9982 30.9942 44.9982 30C44.999 29.4273 44.8685 28.8621 44.6169 28.3477C44.3652 27.8332 43.999 27.3833 43.5464 27.0325C43.0938 26.6816 42.5668 26.4391 42.0059 26.3236C41.445 26.2081 40.8651 26.2227 40.3107 26.3662L33.6319 19.6875C33.7754 19.1332 33.79 18.5535 33.6746 17.9927C33.5592 17.432 33.3169 16.9051 32.9663 16.4525C32.6156 15.9999 32.1659 15.6337 31.6518 15.3819C31.1376 15.1301 30.5726 14.9995 30 15C29.665 14.9943 29.3307 15.0341 29.0063 15.1181L25.725 11.8369L30 7.55812Z" fill="#12C2E9"/>
</g>
</svg>
